            <svg width="56" height="56" viewBox="0 0 98 98" fill="none" xmlns="http://www.w3.org/2000/svg">
              <circle cx="49" cy="49" r="49" fill="black" />
              <circle cx="47.04" cy="47.04" r="47.04" fill="#F9EE2F" />
              <rect x="11.368" y="68.6" width="70.56" height="2.744" fill="black" />
              <path d="M56.84 69.7759C56.84 75.1883 52.4524 79.5759 47.04 79.5759C41.6276 79.5759 37.24 75.1883 37.24 69.7759C37.24 69.7759 41.6276 69.7759 47.04 69.7759C52.4524 69.7759 56.84 69.7759 56.84 69.7759Z" fill="black" />
              <rect x="44.296" y="74.48" width="4.704" height="19.6" fill="black" />
              <rect x="51.744" y="38.024" width="10.584" height="29.4" rx="5.292" fill="black" />
              <path d="M33.3199 49H42.7279V62.72C42.7279 65.3179 40.6219 67.424 38.0239 67.424C35.426 67.424 33.3199 65.3179 33.3199 62.72V49Z" fill="black" />
              <rect x="54.88" y="33.32" width="3.92" height="9.8" fill="black" />
            </svg>